<svg xmlns="http://www.w3.org/2000/svg" viewBox="0 0 800 400" width="800" height="400">
  <!-- mx text -->
  <text x="50" y="220" font-family="Arial, sans-serif" font-size="120" font-weight="bold" fill="#2d5a5a">mx</text>
  
  <!-- O with oxygen text -->
  <g>
    <!-- Large O shape -->
    <path d="M 380 80 
             C 480 80, 520 120, 520 180
             C 520 240, 480 280, 380 280
             C 280 280, 240 240, 240 180
             C 240 120, 280 80, 380 80 Z
             M 380 120
             C 320 120, 290 140, 290 180
             C 290 220, 320 240, 380 240
             C 440 240, 470 220, 470 180
             C 470 140, 440 120, 380 120 Z" 
          fill="#4a9b9b"/>
    
    <!-- oxygen text inside O -->
    <text x="320" y="200" font-family="Arial, sans-serif" font-size="28" font-weight="normal" fill="#2d5a5a">oxygen</text>
  </g>
  
  <!-- 2 -->
  <path d="M 580 100
           C 640 100, 680 120, 680 160
           C 680 190, 660 210, 630 220
           L 680 270
           L 680 290
           L 580 290
           L 580 270
           L 630 220
           C 650 210, 660 200, 660 180
           C 660 150, 640 130, 600 130
           C 580 130, 560 140, 560 160
           L 540 160
           C 540 120, 560 100, 580 100 Z" 
        fill="#4a9b9b"/>
</svg>